ply
format ascii 1.0
element vertex 1192
property float x
property float y
property float z
property uchar red
property uchar green
property uchar blue
property uchar alpha
end_header
0 0 0 0 0 0 255 
1 0 0 255 0 0 255 
0 1 0 0 255 0 255 
0 0 1 0 0 255 255 
2 0 0 255 0 0 255 
0 2 0 0 255 0 255 
0 0 2 0 0 255 255 
3 0 0 255 0 0 255 
0 3 0 0 255 0 255 
0 0 3 0 0 255 255 
4 0 0 255 0 0 255 
0 4 0 0 255 0 255 
0 0 4 0 0 255 255 
5 0 0 255 0 0 255 
0 5 0 0 255 0 255 
0 0 5 0 0 255 255 
6 0 0 255 0 0 255 
0 6 0 0 255 0 255 
0 0 6 0 0 255 255 
7 0 0 255 0 0 255 
0 7 0 0 255 0 255 
0 0 7 0 0 255 255 
8 0 0 255 0 0 255 
0 8 0 0 255 0 255 
0 0 8 0 0 255 255 
9 0 0 255 0 0 255 
0 9 0 0 255 0 255 
0 0 9 0 0 255 255 
10 0 0 255 0 0 255 
0 10 0 0 255 0 255 
0 0 10 0 0 255 255 
11 0 0 255 0 0 255 
0 11 0 0 255 0 255 
0 0 11 0 0 255 255 
12 0 0 255 0 0 255 
0 12 0 0 255 0 255 
0 0 12 0 0 255 255 
13 0 0 255 0 0 255 
0 13 0 0 255 0 255 
0 0 13 0 0 255 255 
14 0 0 255 0 0 255 
0 14 0 0 255 0 255 
0 0 14 0 0 255 255 
15 0 0 255 0 0 255 
0 15 0 0 255 0 255 
0 0 15 0 0 255 255 
16 0 0 255 0 0 255 
0 16 0 0 255 0 255 
0 0 16 0 0 255 255 
17 0 0 255 0 0 255 
0 17 0 0 255 0 255 
0 0 17 0 0 255 255 
18 0 0 255 0 0 255 
0 18 0 0 255 0 255 
0 0 18 0 0 255 255 
19 0 0 255 0 0 255 
0 19 0 0 255 0 255 
0 0 19 0 0 255 255 
20 0 0 255 0 0 255 
0 20 0 0 255 0 255 
0 0 20 0 0 255 255 
21 0 0 255 0 0 255 
0 21 0 0 255 0 255 
0 0 21 0 0 255 255 
22 0 0 255 0 0 255 
0 22 0 0 255 0 255 
0 0 22 0 0 255 255 
23 0 0 255 0 0 255 
0 23 0 0 255 0 255 
0 0 23 0 0 255 255 
24 0 0 255 0 0 255 
0 24 0 0 255 0 255 
0 0 24 0 0 255 255 
25 0 0 255 0 0 255 
0 25 0 0 255 0 255 
0 0 25 0 0 255 255 
26 0 0 255 0 0 255 
0 26 0 0 255 0 255 
0 0 26 0 0 255 255 
27 0 0 255 0 0 255 
0 27 0 0 255 0 255 
0 0 27 0 0 255 255 
28 0 0 255 0 0 255 
0 28 0 0 255 0 255 
0 0 28 0 0 255 255 
29 0 0 255 0 0 255 
0 29 0 0 255 0 255 
0 0 29 0 0 255 255 
30 0 0 255 0 0 255 
0 30 0 0 255 0 255 
0 0 30 0 0 255 255 
31 0 0 255 0 0 255 
0 31 0 0 255 0 255 
0 0 31 0 0 255 255 
32 0 0 255 0 0 255 
0 32 0 0 255 0 255 
0 0 32 0 0 255 255 
33 0 0 255 0 0 255 
0 33 0 0 255 0 255 
0 0 33 0 0 255 255 
34 0 0 255 0 0 255 
0 34 0 0 255 0 255 
0 0 34 0 0 255 255 
35 0 0 255 0 0 255 
0 35 0 0 255 0 255 
0 0 35 0 0 255 255 
36 0 0 255 0 0 255 
0 36 0 0 255 0 255 
0 0 36 0 0 255 255 
37 0 0 255 0 0 255 
0 37 0 0 255 0 255 
0 0 37 0 0 255 255 
38 0 0 255 0 0 255 
0 38 0 0 255 0 255 
0 0 38 0 0 255 255 
39 0 0 255 0 0 255 
0 39 0 0 255 0 255 
0 0 39 0 0 255 255 
40 0 0 255 0 0 255 
0 40 0 0 255 0 255 
0 0 40 0 0 255 255 
41 0 0 255 0 0 255 
0 41 0 0 255 0 255 
0 0 41 0 0 255 255 
42 0 0 255 0 0 255 
0 42 0 0 255 0 255 
0 0 42 0 0 255 255 
43 0 0 255 0 0 255 
0 43 0 0 255 0 255 
0 0 43 0 0 255 255 
44 0 0 255 0 0 255 
0 44 0 0 255 0 255 
0 0 44 0 0 255 255 
45 0 0 255 0 0 255 
0 45 0 0 255 0 255 
0 0 45 0 0 255 255 
46 0 0 255 0 0 255 
0 46 0 0 255 0 255 
0 0 46 0 0 255 255 
47 0 0 255 0 0 255 
0 47 0 0 255 0 255 
0 0 47 0 0 255 255 
48 0 0 255 0 0 255 
0 48 0 0 255 0 255 
0 0 48 0 0 255 255 
49 0 0 255 0 0 255 
0 49 0 0 255 0 255 
0 0 49 0 0 255 255 
50 0 0 255 0 0 255 
0 50 0 0 255 0 255 
0 0 50 0 0 255 255 
51 0 0 255 0 0 255 
0 51 0 0 255 0 255 
0 0 51 0 0 255 255 
52 0 0 255 0 0 255 
0 52 0 0 255 0 255 
0 0 52 0 0 255 255 
53 0 0 255 0 0 255 
0 53 0 0 255 0 255 
0 0 53 0 0 255 255 
54 0 0 255 0 0 255 
0 54 0 0 255 0 255 
0 0 54 0 0 255 255 
55 0 0 255 0 0 255 
0 55 0 0 255 0 255 
0 0 55 0 0 255 255 
56 0 0 255 0 0 255 
0 56 0 0 255 0 255 
0 0 56 0 0 255 255 
57 0 0 255 0 0 255 
0 57 0 0 255 0 255 
0 0 57 0 0 255 255 
58 0 0 255 0 0 255 
0 58 0 0 255 0 255 
0 0 58 0 0 255 255 
59 0 0 255 0 0 255 
0 59 0 0 255 0 255 
0 0 59 0 0 255 255 
60 0 0 255 0 0 255 
0 60 0 0 255 0 255 
0 0 60 0 0 255 255 
61 0 0 255 0 0 255 
0 61 0 0 255 0 255 
0 0 61 0 0 255 255 
62 0 0 255 0 0 255 
0 62 0 0 255 0 255 
0 0 62 0 0 255 255 
63 0 0 255 0 0 255 
0 63 0 0 255 0 255 
0 0 63 0 0 255 255 
64 0 0 255 0 0 255 
0 64 0 0 255 0 255 
0 0 64 0 0 255 255 
65 0 0 255 0 0 255 
0 65 0 0 255 0 255 
0 0 65 0 0 255 255 
66 0 0 255 0 0 255 
0 66 0 0 255 0 255 
0 0 66 0 0 255 255 
67 0 0 255 0 0 255 
0 67 0 0 255 0 255 
0 0 67 0 0 255 255 
68 0 0 255 0 0 255 
0 68 0 0 255 0 255 
0 0 68 0 0 255 255 
69 0 0 255 0 0 255 
0 69 0 0 255 0 255 
0 0 69 0 0 255 255 
70 0 0 255 0 0 255 
0 70 0 0 255 0 255 
0 0 70 0 0 255 255 
71 0 0 255 0 0 255 
0 71 0 0 255 0 255 
0 0 71 0 0 255 255 
72 0 0 255 0 0 255 
0 72 0 0 255 0 255 
0 0 72 0 0 255 255 
73 0 0 255 0 0 255 
0 73 0 0 255 0 255 
0 0 73 0 0 255 255 
74 0 0 255 0 0 255 
0 74 0 0 255 0 255 
0 0 74 0 0 255 255 
75 0 0 255 0 0 255 
0 75 0 0 255 0 255 
0 0 75 0 0 255 255 
76 0 0 255 0 0 255 
0 76 0 0 255 0 255 
0 0 76 0 0 255 255 
77 0 0 255 0 0 255 
0 77 0 0 255 0 255 
0 0 77 0 0 255 255 
78 0 0 255 0 0 255 
0 78 0 0 255 0 255 
0 0 78 0 0 255 255 
79 0 0 255 0 0 255 
0 79 0 0 255 0 255 
0 0 79 0 0 255 255 
80 0 0 255 0 0 255 
0 80 0 0 255 0 255 
0 0 80 0 0 255 255 
81 0 0 255 0 0 255 
0 81 0 0 255 0 255 
0 0 81 0 0 255 255 
82 0 0 255 0 0 255 
0 82 0 0 255 0 255 
0 0 82 0 0 255 255 
83 0 0 255 0 0 255 
0 83 0 0 255 0 255 
0 0 83 0 0 255 255 
84 0 0 255 0 0 255 
0 84 0 0 255 0 255 
0 0 84 0 0 255 255 
85 0 0 255 0 0 255 
0 85 0 0 255 0 255 
0 0 85 0 0 255 255 
86 0 0 255 0 0 255 
0 86 0 0 255 0 255 
0 0 86 0 0 255 255 
87 0 0 255 0 0 255 
0 87 0 0 255 0 255 
0 0 87 0 0 255 255 
88 0 0 255 0 0 255 
0 88 0 0 255 0 255 
0 0 88 0 0 255 255 
89 0 0 255 0 0 255 
0 89 0 0 255 0 255 
0 0 89 0 0 255 255 
90 0 0 255 0 0 255 
0 90 0 0 255 0 255 
0 0 90 0 0 255 255 
91 0 0 255 0 0 255 
0 91 0 0 255 0 255 
0 0 91 0 0 255 255 
92 0 0 255 0 0 255 
0 92 0 0 255 0 255 
0 0 92 0 0 255 255 
93 0 0 255 0 0 255 
0 93 0 0 255 0 255 
0 0 93 0 0 255 255 
94 0 0 255 0 0 255 
0 94 0 0 255 0 255 
0 0 94 0 0 255 255 
95 0 0 255 0 0 255 
0 95 0 0 255 0 255 
0 0 95 0 0 255 255 
96 0 0 255 0 0 255 
0 96 0 0 255 0 255 
0 0 96 0 0 255 255 
97 0 0 255 0 0 255 
0 97 0 0 255 0 255 
0 0 97 0 0 255 255 
98 0 0 255 0 0 255 
0 98 0 0 255 0 255 
0 0 98 0 0 255 255 
99 0 0 255 0 0 255 
0 99 0 0 255 0 255 
0 0 99 0 0 255 255 
1.59457 0.514029 32.9875 0 0 0 255 
0.594574 0.513424 32.9883 127 0 0 255 
1.59359 1.08688 32.1678 0 127 0 255 
1.59462 -0.305631 32.4146 0 0 127 255 
-0.405426 0.512819 32.989 127 0 0 255 
1.5926 1.65973 31.3482 0 127 0 255 
1.59467 -1.12529 31.8418 0 0 127 255 
-1.40543 0.512215 32.9898 127 0 0 255 
1.59162 2.23258 30.5285 0 127 0 255 
1.59472 -1.94495 31.2689 0 0 127 255 
-2.40542 0.51161 32.9906 127 0 0 255 
1.59063 2.80543 29.7088 0 127 0 255 
1.59477 -2.76461 30.6961 0 0 127 255 
-3.40542 0.511006 32.9914 127 0 0 255 
1.58965 3.37828 28.8892 0 127 0 255 
1.59482 -3.58427 30.1232 0 0 127 255 
-4.40542 0.510401 32.9922 127 0 0 255 
1.58866 3.95113 28.0695 0 127 0 255 
1.59487 -4.40393 29.5504 0 0 127 255 
-5.40542 0.509796 32.9929 127 0 0 255 
1.58767 4.52398 27.2499 0 127 0 255 
1.59492 -5.22359 28.9775 0 0 127 255 
-6.40542 0.509192 32.9937 127 0 0 255 
1.58669 5.09683 26.4302 0 127 0 255 
1.59496 -6.04325 28.4047 0 0 127 255 
-7.40542 0.508587 32.9945 127 0 0 255 
1.5857 5.66969 25.6105 0 127 0 255 
1.59501 -6.86291 27.8318 0 0 127 255 
-8.40542 0.507982 32.9953 127 0 0 255 
1.58472 6.24254 24.7909 0 127 0 255 
1.59506 -7.68257 27.259 0 0 127 255 
-9.40542 0.507378 32.9961 127 0 0 255 
1.58373 6.81539 23.9712 0 127 0 255 
1.59511 -8.50223 26.6861 0 0 127 255 
-10.4054 0.506773 32.9968 127 0 0 255 
1.58275 7.38824 23.1516 0 127 0 255 
1.59516 -9.32189 26.1133 0 0 127 255 
-11.4054 0.506168 32.9976 127 0 0 255 
1.58176 7.96109 22.3319 0 127 0 255 
1.59521 -10.1415 25.5404 0 0 127 255 
-12.4054 0.505564 32.9984 127 0 0 255 
1.58078 8.53394 21.5123 0 127 0 255 
1.59526 -10.9612 24.9676 0 0 127 255 
-13.4054 0.504959 32.9992 127 0 0 255 
1.57979 9.10679 20.6926 0 127 0 255 
1.59531 -11.7809 24.3947 0 0 127 255 
-14.4054 0.504354 33 127 0 0 255 
1.57881 9.67964 19.8729 0 127 0 255 
1.59536 -12.6005 23.8219 0 0 127 255 
-15.4054 0.50375 33.0007 127 0 0 255 
1.57782 10.2525 19.0533 0 127 0 255 
1.59541 -13.4202 23.249 0 0 127 255 
-16.4054 0.503145 33.0015 127 0 0 255 
1.57683 10.8253 18.2336 0 127 0 255 
1.59545 -14.2398 22.6762 0 0 127 255 
-17.4054 0.50254 33.0023 127 0 0 255 
1.57585 11.3982 17.414 0 127 0 255 
1.5955 -15.0595 22.1033 0 0 127 255 
-18.4054 0.501936 33.0031 127 0 0 255 
1.57486 11.971 16.5943 0 127 0 255 
1.59555 -15.8792 21.5305 0 0 127 255 
-19.4054 0.501331 33.0039 127 0 0 255 
1.57388 12.5439 15.7746 0 127 0 255 
1.5956 -16.6988 20.9576 0 0 127 255 
-20.4054 0.500727 33.0046 127 0 0 255 
1.57289 13.1167 14.955 0 127 0 255 
1.59565 -17.5185 20.3848 0 0 127 255 
-21.4054 0.500122 33.0054 127 0 0 255 
1.57191 13.6896 14.1353 0 127 0 255 
1.5957 -18.3381 19.8119 0 0 127 255 
-22.4054 0.499517 33.0062 127 0 0 255 
1.57092 14.2624 13.3157 0 127 0 255 
1.59575 -19.1578 19.2391 0 0 127 255 
-23.4054 0.498913 33.007 127 0 0 255 
1.56994 14.8353 12.496 0 127 0 255 
1.5958 -19.9775 18.6662 0 0 127 255 
-24.4054 0.498308 33.0078 127 0 0 255 
1.56895 15.4081 11.6763 0 127 0 255 
1.59585 -20.7971 18.0934 0 0 127 255 
-25.4054 0.497703 33.0085 127 0 0 255 
1.56797 15.981 10.8567 0 127 0 255 
1.59589 -21.6168 17.5205 0 0 127 255 
-26.4054 0.497099 33.0093 127 0 0 255 
1.56698 16.5539 10.037 0 127 0 255 
1.59594 -22.4364 16.9477 0 0 127 255 
-27.4054 0.496494 33.0101 127 0 0 255 
1.56599 17.1267 9.21737 0 127 0 255 
1.59599 -23.2561 16.3748 0 0 127 255 
-28.4054 0.495889 33.0109 127 0 0 255 
1.56501 17.6996 8.39771 0 127 0 255 
1.59604 -24.0758 15.802 0 0 127 255 
-29.4054 0.495285 33.0117 127 0 0 255 
1.56402 18.2724 7.57805 0 127 0 255 
1.59609 -24.8954 15.2291 0 0 127 255 
-30.4054 0.49468 33.0124 127 0 0 255 
1.56304 18.8453 6.75839 0 127 0 255 
1.59614 -25.7151 14.6562 0 0 127 255 
-31.4054 0.494075 33.0132 127 0 0 255 
1.56205 19.4181 5.93873 0 127 0 255 
1.59619 -26.5347 14.0834 0 0 127 255 
-32.4054 0.493471 33.014 127 0 0 255 
1.56107 19.991 5.11907 0 127 0 255 
1.59624 -27.3544 13.5105 0 0 127 255 
-33.4054 0.492866 33.0148 127 0 0 255 
1.56008 20.5638 4.29941 0 127 0 255 
1.59629 -28.1741 12.9377 0 0 127 255 
-34.4054 0.492261 33.0156 127 0 0 255 
1.5591 21.1367 3.47975 0 127 0 255 
1.59634 -28.9937 12.3648 0 0 127 255 
-35.4054 0.491657 33.0163 127 0 0 255 
1.55811 21.7095 2.66009 0 127 0 255 
1.59638 -29.8134 11.792 0 0 127 255 
-36.4054 0.491052 33.0171 127 0 0 255 
1.55713 22.2824 1.84044 0 127 0 255 
1.59643 -30.633 11.2191 0 0 127 255 
-37.4054 0.490447 33.0179 127 0 0 255 
1.55614 22.8552 1.02078 0 127 0 255 
1.59648 -31.4527 10.6463 0 0 127 255 
-38.4054 0.489843 33.0187 127 0 0 255 
1.55515 23.4281 0.201118 0 127 0 255 
1.59653 -32.2724 10.0734 0 0 127 255 
-39.4054 0.489238 33.0195 127 0 0 255 
1.55417 24.0009 -0.618542 0 127 0 255 
1.59658 -33.092 9.50059 0 0 127 255 
-40.4054 0.488634 33.0202 127 0 0 255 
1.55318 24.5738 -1.4382 0 127 0 255 
1.59663 -33.9117 8.92774 0 0 127 255 
-41.4054 0.488029 33.021 127 0 0 255 
1.5522 25.1466 -2.25786 0 127 0 255 
1.59668 -34.7313 8.35489 0 0 127 255 
-42.4054 0.487424 33.0218 127 0 0 255 
1.55121 25.7195 -3.07752 0 127 0 255 
1.59673 -35.551 7.78204 0 0 127 255 
-43.4054 0.48682 33.0226 127 0 0 255 
1.55023 26.2923 -3.89718 0 127 0 255 
1.59678 -36.3706 7.20918 0 0 127 255 
-44.4054 0.486215 33.0233 127 0 0 255 
1.54924 26.8652 -4.71684 0 127 0 255 
1.59682 -37.1903 6.63633 0 0 127 255 
-45.4054 0.48561 33.0241 127 0 0 255 
1.54826 27.438 -5.5365 0 127 0 255 
1.59687 -38.01 6.06348 0 0 127 255 
-46.4054 0.485006 33.0249 127 0 0 255 
1.54727 28.0109 -6.35616 0 127 0 255 
1.59692 -38.8296 5.49063 0 0 127 255 
-47.4054 0.484401 33.0257 127 0 0 255 
1.54628 28.5837 -7.17581 0 127 0 255 
1.59697 -39.6493 4.91778 0 0 127 255 
-48.4054 0.483796 33.0265 127 0 0 255 
1.5453 29.1566 -7.99547 0 127 0 255 
1.59702 -40.4689 4.34493 0 0 127 255 
-49.4054 0.483192 33.0272 127 0 0 255 
1.54431 29.7294 -8.81513 0 127 0 255 
1.59707 -41.2886 3.77208 0 0 127 255 
-50.4054 0.482587 33.028 127 0 0 255 
1.54333 30.3023 -9.63479 0 127 0 255 
1.59712 -42.1083 3.19923 0 0 127 255 
-51.4054 0.481982 33.0288 127 0 0 255 
1.54234 30.8751 -10.4545 0 127 0 255 
1.59717 -42.9279 2.62638 0 0 127 255 
-52.4054 0.481378 33.0296 127 0 0 255 
1.54136 31.448 -11.2741 0 127 0 255 
1.59722 -43.7476 2.05353 0 0 127 255 
-53.4054 0.480773 33.0304 127 0 0 255 
1.54037 32.0208 -12.0938 0 127 0 255 
1.59727 -44.5672 1.48067 0 0 127 255 
-54.4054 0.480168 33.0311 127 0 0 255 
1.53939 32.5937 -12.9134 0 127 0 255 
1.59731 -45.3869 0.907823 0 0 127 255 
-55.4054 0.479564 33.0319 127 0 0 255 
1.5384 33.1665 -13.7331 0 127 0 255 
1.59736 -46.2066 0.334972 0 0 127 255 
-56.4054 0.478959 33.0327 127 0 0 255 
1.53742 33.7394 -14.5527 0 127 0 255 
1.59741 -47.0262 -0.237879 0 0 127 255 
-57.4054 0.478354 33.0335 127 0 0 255 
1.53643 34.3122 -15.3724 0 127 0 255 
1.59746 -47.8459 -0.81073 0 0 127 255 
-58.4054 0.47775 33.0343 127 0 0 255 
1.53544 34.8851 -16.1921 0 127 0 255 
1.59751 -48.6655 -1.38358 0 0 127 255 
-59.4054 0.477145 33.035 127 0 0 255 
1.53446 35.4579 -17.0117 0 127 0 255 
1.59756 -49.4852 -1.95643 0 0 127 255 
-60.4054 0.476541 33.0358 127 0 0 255 
1.53347 36.0308 -17.8314 0 127 0 255 
1.59761 -50.3049 -2.52928 0 0 127 255 
-61.4054 0.475936 33.0366 127 0 0 255 
1.53249 36.6036 -18.651 0 127 0 255 
1.59766 -51.1245 -3.10213 0 0 127 255 
-62.4054 0.475331 33.0374 127 0 0 255 
1.5315 37.1765 -19.4707 0 127 0 255 
1.59771 -51.9442 -3.67499 0 0 127 255 
-63.4054 0.474727 33.0382 127 0 0 255 
1.53052 37.7493 -20.2904 0 127 0 255 
1.59775 -52.7638 -4.24784 0 0 127 255 
-64.4054 0.474122 33.0389 127 0 0 255 
1.52953 38.3222 -21.11 0 127 0 255 
1.5978 -53.5835 -4.82069 0 0 127 255 
-65.4054 0.473517 33.0397 127 0 0 255 
1.52855 38.895 -21.9297 0 127 0 255 
1.59785 -54.4032 -5.39354 0 0 127 255 
-66.4054 0.472913 33.0405 127 0 0 255 
1.52756 39.4679 -22.7493 0 127 0 255 
1.5979 -55.2228 -5.96639 0 0 127 255 
-67.4054 0.472308 33.0413 127 0 0 255 
1.52658 40.0407 -23.569 0 127 0 255 
1.59795 -56.0425 -6.53924 0 0 127 255 
-68.4054 0.471703 33.0421 127 0 0 255 
1.52559 40.6136 -24.3887 0 127 0 255 
1.598 -56.8621 -7.11209 0 0 127 255 
-69.4054 0.471099 33.0428 127 0 0 255 
1.5246 41.1864 -25.2083 0 127 0 255 
1.59805 -57.6818 -7.68494 0 0 127 255 
-70.4054 0.470494 33.0436 127 0 0 255 
1.52362 41.7593 -26.028 0 127 0 255 
1.5981 -58.5015 -8.25779 0 0 127 255 
-71.4054 0.469889 33.0444 127 0 0 255 
1.52263 42.3321 -26.8476 0 127 0 255 
1.59815 -59.3211 -8.83064 0 0 127 255 
-72.4054 0.469285 33.0452 127 0 0 255 
1.52165 42.905 -27.6673 0 127 0 255 
1.5982 -60.1408 -9.4035 0 0 127 255 
-73.4054 0.46868 33.046 127 0 0 255 
1.52066 43.4778 -28.487 0 127 0 255 
1.59824 -60.9604 -9.97635 0 0 127 255 
-74.4054 0.468075 33.0467 127 0 0 255 
1.51968 44.0507 -29.3066 0 127 0 255 
1.59829 -61.7801 -10.5492 0 0 127 255 
-75.4054 0.467471 33.0475 127 0 0 255 
1.51869 44.6235 -30.1263 0 127 0 255 
1.59834 -62.5998 -11.122 0 0 127 255 
-76.4054 0.466866 33.0483 127 0 0 255 
1.51771 45.1964 -30.9459 0 127 0 255 
1.59839 -63.4194 -11.6949 0 0 127 255 
-77.4054 0.466261 33.0491 127 0 0 255 
1.51672 45.7692 -31.7656 0 127 0 255 
1.59844 -64.2391 -12.2678 0 0 127 255 
-78.4054 0.465657 33.0499 127 0 0 255 
1.51573 46.3421 -32.5852 0 127 0 255 
1.59849 -65.0587 -12.8406 0 0 127 255 
-79.4054 0.465052 33.0506 127 0 0 255 
1.51475 46.9149 -33.4049 0 127 0 255 
1.59854 -65.8784 -13.4135 0 0 127 255 
-80.4054 0.464448 33.0514 127 0 0 255 
1.51376 47.4878 -34.2246 0 127 0 255 
1.59859 -66.6981 -13.9863 0 0 127 255 
-81.4054 0.463843 33.0522 127 0 0 255 
1.51278 48.0606 -35.0442 0 127 0 255 
1.59864 -67.5177 -14.5592 0 0 127 255 
-82.4054 0.463238 33.053 127 0 0 255 
1.51179 48.6335 -35.8639 0 127 0 255 
1.59868 -68.3374 -15.132 0 0 127 255 
-83.4054 0.462634 33.0538 127 0 0 255 
1.51081 49.2063 -36.6835 0 127 0 255 
1.59873 -69.157 -15.7049 0 0 127 255 
-84.4054 0.462029 33.0545 127 0 0 255 
1.50982 49.7792 -37.5032 0 127 0 255 
1.59878 -69.9767 -16.2777 0 0 127 255 
-85.4054 0.461424 33.0553 127 0 0 255 
1.50884 50.352 -38.3229 0 127 0 255 
1.59883 -70.7963 -16.8506 0 0 127 255 
-86.4054 0.46082 33.0561 127 0 0 255 
1.50785 50.9249 -39.1425 0 127 0 255 
1.59888 -71.616 -17.4234 0 0 127 255 
-87.4054 0.460215 33.0569 127 0 0 255 
1.50687 51.4977 -39.9622 0 127 0 255 
1.59893 -72.4357 -17.9963 0 0 127 255 
-88.4054 0.45961 33.0577 127 0 0 255 
1.50588 52.0706 -40.7818 0 127 0 255 
1.59898 -73.2553 -18.5691 0 0 127 255 
-89.4054 0.459006 33.0584 127 0 0 255 
1.50489 52.6434 -41.6015 0 127 0 255 
1.59903 -74.075 -19.142 0 0 127 255 
-90.4054 0.458401 33.0592 127 0 0 255 
1.50391 53.2163 -42.4212 0 127 0 255 
1.59908 -74.8946 -19.7148 0 0 127 255 
-91.4054 0.457796 33.06 127 0 0 255 
1.50292 53.7891 -43.2408 0 127 0 255 
1.59912 -75.7143 -20.2877 0 0 127 255 
-92.4054 0.457192 33.0608 127 0 0 255 
1.50194 54.362 -44.0605 0 127 0 255 
1.59917 -76.534 -20.8605 0 0 127 255 
-93.4054 0.456587 33.0616 127 0 0 255 
1.50095 54.9348 -44.8801 0 127 0 255 
1.59922 -77.3536 -21.4334 0 0 127 255 
-94.4054 0.455982 33.0623 127 0 0 255 
1.49997 55.5077 -45.6998 0 127 0 255 
1.59927 -78.1733 -22.0062 0 0 127 255 
-95.4054 0.455378 33.0631 127 0 0 255 
1.49898 56.0806 -46.5195 0 127 0 255 
1.59932 -78.9929 -22.5791 0 0 127 255 
-96.4054 0.454773 33.0639 127 0 0 255 
1.498 56.6534 -47.3391 0 127 0 255 
1.59937 -79.8126 -23.1519 0 0 127 255 
-97.4054 0.454168 33.0647 127 0 0 255 
1.49701 57.2263 -48.1588 0 127 0 255 
1.59942 -80.6323 -23.7248 0 0 127 255 
2.01225 0.693862 32.7309 0 0 0 255 
1.02756 0.593447 32.8734 127 0 0 255 
1.83791 1.25845 31.9241 0 127 0 255 
2.0128 -0.125382 32.1575 0 0 127 255 
0.0428782 0.493031 33.0159 127 0 0 255 
1.66357 1.82303 31.1174 0 127 0 255 
2.01335 -0.944626 31.584 0 0 127 255 
-0.941808 0.392616 33.1584 127 0 0 255 
1.48924 2.38762 30.3106 0 127 0 255 
2.01389 -1.76387 31.0106 0 0 127 255 
-1.92649 0.2922 33.301 127 0 0 255 
1.3149 2.9522 29.5039 0 127 0 255 
2.01444 -2.58311 30.4371 0 0 127 255 
-2.91118 0.191785 33.4435 127 0 0 255 
1.14056 3.51679 28.6971 0 127 0 255 
2.01499 -3.40236 29.8637 0 0 127 255 
-3.89586 0.0913693 33.586 127 0 0 255 
0.966223 4.08137 27.8904 0 127 0 255 
2.01554 -4.2216 29.2902 0 0 127 255 
-4.88055 -0.00904623 33.7285 127 0 0 255 
0.791885 4.64596 27.0836 0 127 0 255 
2.01609 -5.04085 28.7168 0 0 127 255 
-5.86524 -0.109462 33.871 127 0 0 255 
0.617547 5.21054 26.2769 0 127 0 255 
2.01664 -5.86009 28.1433 0 0 127 255 
-6.84992 -0.209877 34.0135 127 0 0 255 
0.443209 5.77513 25.4701 0 127 0 255 
2.01718 -6.67933 27.5699 0 0 127 255 
-7.83461 -0.310293 34.1561 127 0 0 255 
0.268872 6.33971 24.6634 0 127 0 255 
2.01773 -7.49858 26.9964 0 0 127 255 
-8.81929 -0.410708 34.2986 127 0 0 255 
0.0945339 6.9043 23.8566 0 127 0 255 
2.01828 -8.31782 26.423 0 0 127 255 
-9.80398 -0.511124 34.4411 127 0 0 255 
-0.0798039 7.46888 23.0499 0 127 0 255 
2.01883 -9.13707 25.8496 0 0 127 255 
-10.7887 -0.611539 34.5836 127 0 0 255 
-0.254142 8.03347 22.2431 0 127 0 255 
2.01938 -9.95631 25.2761 0 0 127 255 
-11.7734 -0.711955 34.7261 127 0 0 255 
-0.42848 8.59805 21.4364 0 127 0 255 
2.01993 -10.7756 24.7027 0 0 127 255 
-12.758 -0.81237 34.8686 127 0 0 255 
-0.602817 9.16263 20.6296 0 127 0 255 
2.02047 -11.5948 24.1292 0 0 127 255 
-13.7427 -0.912786 35.0111 127 0 0 255 
-0.777155 9.72722 19.8229 0 127 0 255 
2.02102 -12.414 23.5558 0 0 127 255 
-14.7274 -1.0132 35.1537 127 0 0 255 
-0.951493 10.2918 19.0161 0 127 0 255 
2.02157 -13.2333 22.9823 0 0 127 255 
-15.7121 -1.11362 35.2962 127 0 0 255 
-1.12583 10.8564 18.2093 0 127 0 255 
2.02212 -14.0525 22.4089 0 0 127 255 
-16.6968 -1.21403 35.4387 127 0 0 255 
-1.30017 11.421 17.4026 0 127 0 255 
2.02267 -14.8718 21.8354 0 0 127 255 
-17.6815 -1.31445 35.5812 127 0 0 255 
-1.47451 11.9856 16.5958 0 127 0 255 
2.02322 -15.691 21.262 0 0 127 255 
-18.6662 -1.41486 35.7237 127 0 0 255 
-1.64884 12.5501 15.7891 0 127 0 255 
2.02376 -16.5103 20.6886 0 0 127 255 
-19.6508 -1.51528 35.8662 127 0 0 255 
-1.82318 13.1147 14.9823 0 127 0 255 
2.02431 -17.3295 20.1151 0 0 127 255 
-20.6355 -1.61569 36.0088 127 0 0 255 
-1.99752 13.6793 14.1756 0 127 0 255 
2.02486 -18.1487 19.5417 0 0 127 255 
-21.6202 -1.71611 36.1513 127 0 0 255 
-2.17186 14.2439 13.3688 0 127 0 255 
2.02541 -18.968 18.9682 0 0 127 255 
-22.6049 -1.81652 36.2938 127 0 0 255 
-2.3462 14.8085 12.5621 0 127 0 255 
2.02596 -19.7872 18.3948 0 0 127 255 
-23.5896 -1.91694 36.4363 127 0 0 255 
-2.52053 15.3731 11.7553 0 127 0 255 
2.02651 -20.6065 17.8213 0 0 127 255 
-24.5743 -2.01736 36.5788 127 0 0 255 
-2.69487 15.9377 10.9486 0 127 0 255 
2.02705 -21.4257 17.2479 0 0 127 255 
-25.559 -2.11777 36.7213 127 0 0 255 
-2.86921 16.5022 10.1418 0 127 0 255 
2.0276 -22.245 16.6744 0 0 127 255 
-26.5436 -2.21819 36.8638 127 0 0 255 
-3.04355 17.0668 9.33506 0 127 0 255 
2.02815 -23.0642 16.101 0 0 127 255 
-27.5283 -2.3186 37.0064 127 0 0 255 
-3.21788 17.6314 8.52831 0 127 0 255 
2.0287 -23.8835 15.5276 0 0 127 255 
-28.513 -2.41902 37.1489 127 0 0 255 
-3.39222 18.196 7.72156 0 127 0 255 
2.02925 -24.7027 14.9541 0 0 127 255 
-29.4977 -2.51943 37.2914 127 0 0 255 
-3.56656 18.7606 6.9148 0 127 0 255 
2.0298 -25.5219 14.3807 0 0 127 255 
-30.4824 -2.61985 37.4339 127 0 0 255 
-3.7409 19.3252 6.10805 0 127 0 255 
2.03034 -26.3412 13.8072 0 0 127 255 
-31.4671 -2.72026 37.5764 127 0 0 255 
-3.91524 19.8897 5.3013 0 127 0 255 
2.03089 -27.1604 13.2338 0 0 127 255 
-32.4518 -2.82068 37.7189 127 0 0 255 
-4.08957 20.4543 4.49454 0 127 0 255 
2.03144 -27.9797 12.6603 0 0 127 255 
-33.4364 -2.9211 37.8615 127 0 0 255 
-4.26391 21.0189 3.68779 0 127 0 255 
2.03199 -28.7989 12.0869 0 0 127 255 
-34.4211 -3.02151 38.004 127 0 0 255 
-4.43825 21.5835 2.88104 0 127 0 255 
2.03254 -29.6182 11.5134 0 0 127 255 
-35.4058 -3.12193 38.1465 127 0 0 255 
-4.61259 22.1481 2.07429 0 127 0 255 
2.03309 -30.4374 10.94 0 0 127 255 
-36.3905 -3.22234 38.289 127 0 0 255 
-4.78692 22.7127 1.26753 0 127 0 255 
2.03363 -31.2567 10.3665 0 0 127 255 
-37.3752 -3.32276 38.4315 127 0 0 255 
-4.96126 23.2773 0.46078 0 127 0 255 
2.03418 -32.0759 9.7931 0 0 127 255 
-38.3599 -3.42317 38.574 127 0 0 255 
-5.1356 23.8418 -0.345973 0 127 0 255 
2.03473 -32.8951 9.21966 0 0 127 255 
-39.3446 -3.52359 38.7166 127 0 0 255 
-5.30994 24.4064 -1.15273 0 127 0 255 
2.03528 -33.7144 8.64621 0 0 127 255 
-40.3292 -3.624 38.8591 127 0 0 255 
-5.48428 24.971 -1.95948 0 127 0 255 
2.03583 -34.5336 8.07277 0 0 127 255 
-41.3139 -3.72442 39.0016 127 0 0 255 
-5.65861 25.5356 -2.76623 0 127 0 255 
2.03638 -35.3529 7.49932 0 0 127 255 
-42.2986 -3.82483 39.1441 127 0 0 255 
-5.83295 26.1002 -3.57298 0 127 0 255 
2.03692 -36.1721 6.92588 0 0 127 255 
-43.2833 -3.92525 39.2866 127 0 0 255 
-6.00729 26.6648 -4.37974 0 127 0 255 
2.03747 -36.9914 6.35243 0 0 127 255 
-44.268 -4.02567 39.4291 127 0 0 255 
-6.18163 27.2293 -5.18649 0 127 0 255 
2.03802 -37.8106 5.77899 0 0 127 255 
-45.2527 -4.12608 39.5716 127 0 0 255 
-6.35596 27.7939 -5.99324 0 127 0 255 
2.03857 -38.6298 5.20554 0 0 127 255 
-46.2374 -4.2265 39.7142 127 0 0 255 
-6.5303 28.3585 -6.8 0 127 0 255 
2.03912 -39.4491 4.6321 0 0 127 255 
-47.222 -4.32691 39.8567 127 0 0 255 
-6.70464 28.9231 -7.60675 0 127 0 255 
2.03967 -40.2683 4.05865 0 0 127 255 
-48.2067 -4.42733 39.9992 127 0 0 255 
-6.87898 29.4877 -8.4135 0 127 0 255 
2.04021 -41.0876 3.48521 0 0 127 255 
-49.1914 -4.52774 40.1417 127 0 0 255 
-7.05332 30.0523 -9.22025 0 127 0 255 
2.04076 -41.9068 2.91176 0 0 127 255 
-50.1761 -4.62816 40.2842 127 0 0 255 
-7.22765 30.6169 -10.027 0 127 0 255 
2.04131 -42.7261 2.33832 0 0 127 255 
-51.1608 -4.72857 40.4267 127 0 0 255 
-7.40199 31.1814 -10.8338 0 127 0 255 
2.04186 -43.5453 1.76487 0 0 127 255 
-52.1455 -4.82899 40.5693 127 0 0 255 
-7.57633 31.746 -11.6405 0 127 0 255 
2.04241 -44.3646 1.19143 0 0 127 255 
-53.1302 -4.92941 40.7118 127 0 0 255 
-7.75067 32.3106 -12.4473 0 127 0 255 
2.04296 -45.1838 0.617985 0 0 127 255 
-54.1148 -5.02982 40.8543 127 0 0 255 
-7.925 32.8752 -13.254 0 127 0 255 
2.0435 -46.003 0.0445403 0 0 127 255 
-55.0995 -5.13024 40.9968 127 0 0 255 
-8.09934 33.4398 -14.0608 0 127 0 255 
2.04405 -46.8223 -0.528905 0 0 127 255 
-56.0842 -5.23065 41.1393 127 0 0 255 
-8.27368 34.0044 -14.8675 0 127 0 255 
2.0446 -47.6415 -1.10235 0 0 127 255 
-57.0689 -5.33107 41.2818 127 0 0 255 
-8.44802 34.569 -15.6743 0 127 0 255 
2.04515 -48.4608 -1.67579 0 0 127 255 
-58.0536 -5.43148 41.4244 127 0 0 255 
-8.62236 35.1335 -16.481 0 127 0 255 
2.0457 -49.28 -2.24924 0 0 127 255 
-59.0383 -5.5319 41.5669 127 0 0 255 
-8.79669 35.6981 -17.2878 0 127 0 255 
2.04625 -50.0993 -2.82268 0 0 127 255 
-60.023 -5.63231 41.7094 127 0 0 255 
-8.97103 36.2627 -18.0945 0 127 0 255 
2.04679 -50.9185 -3.39613 0 0 127 255 
-61.0076 -5.73273 41.8519 127 0 0 255 
-9.14537 36.8273 -18.9013 0 127 0 255 
2.04734 -51.7378 -3.96957 0 0 127 255 
-61.9923 -5.83314 41.9944 127 0 0 255 
-9.31971 37.3919 -19.708 0 127 0 255 
2.04789 -52.557 -4.54302 0 0 127 255 
-62.977 -5.93356 42.1369 127 0 0 255 
-9.49405 37.9565 -20.5148 0 127 0 255 
2.04844 -53.3762 -5.11646 0 0 127 255 
-63.9617 -6.03398 42.2794 127 0 0 255 
-9.66838 38.521 -21.3215 0 127 0 255 
2.04899 -54.1955 -5.68991 0 0 127 255 
-64.9464 -6.13439 42.422 127 0 0 255 
-9.84272 39.0856 -22.1283 0 127 0 255 
2.04954 -55.0147 -6.26335 0 0 127 255 
-65.9311 -6.23481 42.5645 127 0 0 255 
-10.0171 39.6502 -22.9351 0 127 0 255 
2.05008 -55.834 -6.8368 0 0 127 255 
-66.9158 -6.33522 42.707 127 0 0 255 
-10.1914 40.2148 -23.7418 0 127 0 255 
2.05063 -56.6532 -7.41024 0 0 127 255 
-67.9004 -6.43564 42.8495 127 0 0 255 
-10.3657 40.7794 -24.5486 0 127 0 255 
2.05118 -57.4725 -7.98369 0 0 127 255 
-68.8851 -6.53605 42.992 127 0 0 255 
-10.5401 41.344 -25.3553 0 127 0 255 
2.05173 -58.2917 -8.55713 0 0 127 255 
-69.8698 -6.63647 43.1345 127 0 0 255 
-10.7144 41.9086 -26.1621 0 127 0 255 
2.05228 -59.1109 -9.13058 0 0 127 255 
-70.8545 -6.73688 43.2771 127 0 0 255 
-10.8887 42.4731 -26.9688 0 127 0 255 
2.05283 -59.9302 -9.70402 0 0 127 255 
-71.8392 -6.8373 43.4196 127 0 0 255 
-11.0631 43.0377 -27.7756 0 127 0 255 
2.05337 -60.7494 -10.2775 0 0 127 255 
-72.8239 -6.93771 43.5621 127 0 0 255 
-11.2374 43.6023 -28.5823 0 127 0 255 
2.05392 -61.5687 -10.8509 0 0 127 255 
-73.8086 -7.03813 43.7046 127 0 0 255 
-11.4118 44.1669 -29.3891 0 127 0 255 
2.05447 -62.3879 -11.4244 0 0 127 255 
-74.7932 -7.13855 43.8471 127 0 0 255 
-11.5861 44.7315 -30.1958 0 127 0 255 
2.05502 -63.2072 -11.9978 0 0 127 255 
-75.7779 -7.23896 43.9896 127 0 0 255 
-11.7604 45.2961 -31.0026 0 127 0 255 
2.05557 -64.0264 -12.5712 0 0 127 255 
-76.7626 -7.33938 44.1321 127 0 0 255 
-11.9348 45.8606 -31.8093 0 127 0 255 
2.05612 -64.8457 -13.1447 0 0 127 255 
-77.7473 -7.43979 44.2747 127 0 0 255 
-12.1091 46.4252 -32.6161 0 127 0 255 
2.05666 -65.6649 -13.7181 0 0 127 255 
-78.732 -7.54021 44.4172 127 0 0 255 
-12.2835 46.9898 -33.4228 0 127 0 255 
2.05721 -66.4841 -14.2916 0 0 127 255 
-79.7167 -7.64062 44.5597 127 0 0 255 
-12.4578 47.5544 -34.2296 0 127 0 255 
2.05776 -67.3034 -14.865 0 0 127 255 
-80.7014 -7.74104 44.7022 127 0 0 255 
-12.6321 48.119 -35.0364 0 127 0 255 
2.05831 -68.1226 -15.4385 0 0 127 255 
-81.686 -7.84145 44.8447 127 0 0 255 
-12.8065 48.6836 -35.8431 0 127 0 255 
2.05886 -68.9419 -16.0119 0 0 127 255 
-82.6707 -7.94187 44.9872 127 0 0 255 
-12.9808 49.2482 -36.6499 0 127 0 255 
2.05941 -69.7611 -16.5854 0 0 127 255 
-83.6554 -8.04228 45.1298 127 0 0 255 
-13.1551 49.8127 -37.4566 0 127 0 255 
2.05995 -70.5804 -17.1588 0 0 127 255 
-84.6401 -8.1427 45.2723 127 0 0 255 
-13.3295 50.3773 -38.2634 0 127 0 255 
2.0605 -71.3996 -17.7323 0 0 127 255 
-85.6248 -8.24312 45.4148 127 0 0 255 
-13.5038 50.9419 -39.0701 0 127 0 255 
2.06105 -72.2188 -18.3057 0 0 127 255 
-86.6095 -8.34353 45.5573 127 0 0 255 
-13.6782 51.5065 -39.8769 0 127 0 255 
2.0616 -73.0381 -18.8791 0 0 127 255 
-87.5942 -8.44395 45.6998 127 0 0 255 
-13.8525 52.0711 -40.6836 0 127 0 255 
2.06215 -73.8573 -19.4526 0 0 127 255 
-88.5788 -8.54436 45.8423 127 0 0 255 
-14.0268 52.6357 -41.4904 0 127 0 255 
2.0627 -74.6766 -20.026 0 0 127 255 
-89.5635 -8.64478 45.9848 127 0 0 255 
-14.2012 53.2003 -42.2971 0 127 0 255 
2.06324 -75.4958 -20.5995 0 0 127 255 
-90.5482 -8.74519 46.1274 127 0 0 255 
-14.3755 53.7648 -43.1039 0 127 0 255 
2.06379 -76.3151 -21.1729 0 0 127 255 
-91.5329 -8.84561 46.2699 127 0 0 255 
-14.5498 54.3294 -43.9106 0 127 0 255 
2.06434 -77.1343 -21.7464 0 0 127 255 
-92.5176 -8.94602 46.4124 127 0 0 255 
-14.7242 54.894 -44.7174 0 127 0 255 
2.06489 -77.9536 -22.3198 0 0 127 255 
-93.5023 -9.04644 46.5549 127 0 0 255 
-14.8985 55.4586 -45.5241 0 127 0 255 
2.06544 -78.7728 -22.8933 0 0 127 255 
-94.487 -9.14686 46.6974 127 0 0 255 
-15.0729 56.0232 -46.3309 0 127 0 255 
2.06599 -79.592 -23.4667 0 0 127 255 
-95.4716 -9.24727 46.8399 127 0 0 255 
-15.2472 56.5878 -47.1376 0 127 0 255 
2.06653 -80.4113 -24.0401 0 0 127 255 
2.37048 0.914937 32.4182 0 0 0 255 
1.431 0.718294 32.6988 127 0 0 255 
2.02786 1.45307 31.6482 0 127 0 255 
2.37093 0.0953375 31.8453 0 0 127 255 
0.491528 0.521651 32.9794 127 0 0 255 
1.68524 1.9912 30.8781 0 127 0 255 
2.37137 -0.724262 31.2724 0 0 127 255 
-0.447947 0.325008 33.2599 127 0 0 255 
1.34262 2.52934 30.108 0 127 0 255 
2.37182 -1.54386 30.6994 0 0 127 255 
-1.38742 0.128365 33.5405 127 0 0 255 
1.00001 3.06747 29.3379 0 127 0 255 
2.37227 -2.36346 30.1265 0 0 127 255 
-2.3269 -0.0682783 33.8211 127 0 0 255 
0.65739 3.6056 28.5678 0 127 0 255 
2.37272 -3.18306 29.5536 0 0 127 255 
-3.26637 -0.264921 34.1016 127 0 0 255 
0.314772 4.14374 27.7977 0 127 0 255 
2.37317 -4.00266 28.9806 0 0 127 255 
-4.20585 -0.461565 34.3822 127 0 0 255 
-0.0278455 4.68187 27.0277 0 127 0 255 
2.37362 -4.82226 28.4077 0 0 127 255 
-5.14532 -0.658208 34.6628 127 0 0 255 
-0.370463 5.22 26.2576 0 127 0 255 
2.37406 -5.64186 27.8347 0 0 127 255 
-6.0848 -0.854851 34.9433 127 0 0 255 
-0.713081 5.75814 25.4875 0 127 0 255 
2.37451 -6.46146 27.2618 0 0 127 255 
-7.02427 -1.05149 35.2239 127 0 0 255 
-1.0557 6.29627 24.7174 0 127 0 255 
2.37496 -7.28106 26.6889 0 0 127 255 
-7.96375 -1.24814 35.5045 127 0 0 255 
-1.39832 6.8344 23.9473 0 127 0 255 
2.37541 -8.10066 26.1159 0 0 127 255 
-8.90322 -1.44478 35.785 127 0 0 255 
-1.74093 7.37254 23.1773 0 127 0 255 
2.37586 -8.92026 25.543 0 0 127 255 
-9.8427 -1.64142 36.0656 127 0 0 255 
-2.08355 7.91067 22.4072 0 127 0 255 
2.3763 -9.73986 24.9701 0 0 127 255 
-10.7822 -1.83807 36.3462 127 0 0 255 
-2.42617 8.4488 21.6371 0 127 0 255 
2.37675 -10.5595 24.3971 0 0 127 255 
-11.7216 -2.03471 36.6268 127 0 0 255 
-2.76879 8.98694 20.867 0 127 0 255 
2.3772 -11.3791 23.8242 0 0 127 255 
-12.6611 -2.23135 36.9073 127 0 0 255 
-3.1114 9.52507 20.0969 0 127 0 255 
2.37765 -12.1987 23.2513 0 0 127 255 
-13.6006 -2.428 37.1879 127 0 0 255 
-3.45402 10.0632 19.3268 0 127 0 255 
2.3781 -13.0183 22.6783 0 0 127 255 
-14.5401 -2.62464 37.4685 127 0 0 255 
-3.79664 10.6013 18.5568 0 127 0 255 
2.37855 -13.8379 22.1054 0 0 127 255 
-15.4795 -2.82128 37.749 127 0 0 255 
-4.13926 11.1395 17.7867 0 127 0 255 
2.37899 -14.6575 21.5324 0 0 127 255 
-16.419 -3.01793 38.0296 127 0 0 255 
-4.48187 11.6776 17.0166 0 127 0 255 
2.37944 -15.4771 20.9595 0 0 127 255 
-17.3585 -3.21457 38.3102 127 0 0 255 
-4.82449 12.2157 16.2465 0 127 0 255 
2.37989 -16.2967 20.3866 0 0 127 255 
-18.298 -3.41121 38.5907 127 0 0 255 
-5.16711 12.7539 15.4764 0 127 0 255 
2.38034 -17.1163 19.8136 0 0 127 255 
-19.2374 -3.60786 38.8713 127 0 0 255 
-5.50973 13.292 14.7064 0 127 0 255 
2.38079 -17.9359 19.2407 0 0 127 255 
-20.1769 -3.8045 39.1519 127 0 0 255 
-5.85234 13.8301 13.9363 0 127 0 255 
2.38123 -18.7555 18.6678 0 0 127 255 
-21.1164 -4.00114 39.4324 127 0 0 255 
-6.19496 14.3683 13.1662 0 127 0 255 
2.38168 -19.5751 18.0948 0 0 127 255 
-22.0559 -4.19778 39.713 127 0 0 255 
-6.53758 14.9064 12.3961 0 127 0 255 
2.38213 -20.3947 17.5219 0 0 127 255 
-22.9953 -4.39443 39.9936 127 0 0 255 
-6.8802 15.4445 11.626 0 127 0 255 
2.38258 -21.2143 16.949 0 0 127 255 
-23.9348 -4.59107 40.2741 127 0 0 255 
-7.22282 15.9827 10.8559 0 127 0 255 
2.38303 -22.0339 16.376 0 0 127 255 
-24.8743 -4.78771 40.5547 127 0 0 255 
-7.56543 16.5208 10.0859 0 127 0 255 
2.38348 -22.8535 15.8031 0 0 127 255 
-25.8138 -4.98436 40.8353 127 0 0 255 
-7.90805 17.0589 9.31578 0 127 0 255 
2.38392 -23.6731 15.2301 0 0 127 255 
-26.7532 -5.181 41.1158 127 0 0 255 
-8.25067 17.5971 8.5457 0 127 0 255 
2.38437 -24.4927 14.6572 0 0 127 255 
-27.6927 -5.37764 41.3964 127 0 0 255 
-8.59329 18.1352 7.77562 0 127 0 255 
2.38482 -25.3123 14.0843 0 0 127 255 
-28.6322 -5.57429 41.677 127 0 0 255 
-8.9359 18.6733 7.00554 0 127 0 255 
2.38527 -26.1319 13.5113 0 0 127 255 
-29.5717 -5.77093 41.9576 127 0 0 255 
-9.27852 19.2115 6.23546 0 127 0 255 
2.38572 -26.9515 12.9384 0 0 127 255 
-30.5111 -5.96757 42.2381 127 0 0 255 
-9.62114 19.7496 5.46538 0 127 0 255 
2.38616 -27.7711 12.3655 0 0 127 255 
-31.4506 -6.16422 42.5187 127 0 0 255 
-9.96376 20.2877 4.69529 0 127 0 255 
2.38661 -28.5907 11.7925 0 0 127 255 
-32.3901 -6.36086 42.7993 127 0 0 255 
-10.3064 20.8259 3.92521 0 127 0 255 
2.38706 -29.4103 11.2196 0 0 127 255 
-33.3296 -6.5575 43.0798 127 0 0 255 
-10.649 21.364 3.15513 0 127 0 255 
2.38751 -30.2299 10.6467 0 0 127 255 
-34.269 -6.75415 43.3604 127 0 0 255 
-10.9916 21.9021 2.38505 0 127 0 255 
2.38796 -31.0495 10.0737 0 0 127 255 
-35.2085 -6.95079 43.641 127 0 0 255 
-11.3342 22.4403 1.61497 0 127 0 255 
2.38841 -31.8691 9.50079 0 0 127 255 
-36.148 -7.14743 43.9215 127 0 0 255 
-11.6768 22.9784 0.844886 0 127 0 255 
2.38885 -32.6887 8.92785 0 0 127 255 
-37.0875 -7.34407 44.2021 127 0 0 255 
-12.0195 23.5165 0.0748041 0 127 0 255 
2.3893 -33.5083 8.35492 0 0 127 255 
-38.0269 -7.54072 44.4827 127 0 0 255 
-12.3621 24.0547 -0.695278 0 127 0 255 
2.38975 -34.3279 7.78198 0 0 127 255 
-38.9664 -7.73736 44.7632 127 0 0 255 
-12.7047 24.5928 -1.46536 0 127 0 255 
2.3902 -35.1475 7.20904 0 0 127 255 
-39.9059 -7.934 45.0438 127 0 0 255 
-13.0473 25.1309 -2.23544 0 127 0 255 
2.39065 -35.9671 6.63611 0 0 127 255 
-40.8454 -8.13065 45.3244 127 0 0 255 
-13.3899 25.6691 -3.00552 0 127 0 255 
2.3911 -36.7867 6.06317 0 0 127 255 
-41.7848 -8.32729 45.6049 127 0 0 255 
-13.7325 26.2072 -3.7756 0 127 0 255 
2.39154 -37.6063 5.49024 0 0 127 255 
-42.7243 -8.52393 45.8855 127 0 0 255 
-14.0752 26.7453 -4.54569 0 127 0 255 
2.39199 -38.4259 4.9173 0 0 127 255 
-43.6638 -8.72058 46.1661 127 0 0 255 
-14.4178 27.2835 -5.31577 0 127 0 255 
2.39244 -39.2455 4.34436 0 0 127 255 
-44.6033 -8.91722 46.4466 127 0 0 255 
-14.7604 27.8216 -6.08585 0 127 0 255 
2.39289 -40.0651 3.77143 0 0 127 255 
-45.5427 -9.11386 46.7272 127 0 0 255 
-15.103 28.3597 -6.85593 0 127 0 255 
2.39334 -40.8847 3.19849 0 0 127 255 
-46.4822 -9.31051 47.0078 127 0 0 255 
-15.4456 28.8979 -7.62601 0 127 0 255 
2.39378 -41.7043 2.62556 0 0 127 255 
-47.4217 -9.50715 47.2883 127 0 0 255 
-15.7883 29.436 -8.39609 0 127 0 255 
2.39423 -42.5239 2.05262 0 0 127 255 
-48.3612 -9.70379 47.5689 127 0 0 255 
-16.1309 29.9741 -9.16618 0 127 0 255 
2.39468 -43.3435 1.47968 0 0 127 255 
-49.3006 -9.90044 47.8495 127 0 0 255 
-16.4735 30.5123 -9.93626 0 127 0 255 
2.39513 -44.1631 0.906747 0 0 127 255 
-50.2401 -10.0971 48.1301 127 0 0 255 
-16.8161 31.0504 -10.7063 0 127 0 255 
2.39558 -44.9827 0.333811 0 0 127 255 
-51.1796 -10.2937 48.4106 127 0 0 255 
-17.1587 31.5885 -11.4764 0 127 0 255 
2.39603 -45.8023 -0.239125 0 0 127 255 
-52.1191 -10.4904 48.6912 127 0 0 255 
-17.5013 32.1267 -12.2465 0 127 0 255 
2.39647 -46.6219 -0.812061 0 0 127 255 
-53.0585 -10.687 48.9718 127 0 0 255 
-17.844 32.6648 -13.0166 0 127 0 255 
2.39692 -47.4415 -1.385 0 0 127 255 
-53.998 -10.8837 49.2523 127 0 0 255 
-18.1866 33.2029 -13.7867 0 127 0 255 
2.39737 -48.2611 -1.95793 0 0 127 255 
-54.9375 -11.0803 49.5329 127 0 0 255 
-18.5292 33.7411 -14.5567 0 127 0 255 
2.39782 -49.0807 -2.53087 0 0 127 255 
-55.877 -11.2769 49.8135 127 0 0 255 
-18.8718 34.2792 -15.3268 0 127 0 255 
2.39827 -49.9003 -3.10381 0 0 127 255 
-56.8164 -11.4736 50.094 127 0 0 255 
-19.2144 34.8173 -16.0969 0 127 0 255 
2.39871 -50.7199 -3.67674 0 0 127 255 
-57.7559 -11.6702 50.3746 127 0 0 255 
-19.557 35.3555 -16.867 0 127 0 255 
2.39916 -51.5395 -4.24968 0 0 127 255 
-58.6954 -11.8669 50.6552 127 0 0 255 
-19.8997 35.8936 -17.6371 0 127 0 255 
2.39961 -52.3591 -4.82261 0 0 127 255 
-59.6349 -12.0635 50.9357 127 0 0 255 
-20.2423 36.4317 -18.4072 0 127 0 255 
2.40006 -53.1787 -5.39555 0 0 127 255 
-60.5743 -12.2602 51.2163 127 0 0 255 
-20.5849 36.9699 -19.1772 0 127 0 255 
2.40051 -53.9983 -5.96849 0 0 127 255 
-61.5138 -12.4568 51.4969 127 0 0 255 
-20.9275 37.508 -19.9473 0 127 0 255 
2.40096 -54.8179 -6.54142 0 0 127 255 
-62.4533 -12.6534 51.7774 127 0 0 255 
-21.2701 38.0461 -20.7174 0 127 0 255 
2.4014 -55.6375 -7.11436 0 0 127 255 
-63.3928 -12.8501 52.058 127 0 0 255 
-21.6128 38.5843 -21.4875 0 127 0 255 
2.40185 -56.4571 -7.68729 0 0 127 255 
-64.3322 -13.0467 52.3386 127 0 0 255 
-21.9554 39.1224 -22.2576 0 127 0 255 
2.4023 -57.2767 -8.26023 0 0 127 255 
-65.2717 -13.2434 52.6191 127 0 0 255 
-22.298 39.6605 -23.0276 0 127 0 255 
2.40275 -58.0963 -8.83317 0 0 127 255 
-66.2112 -13.44 52.8997 127 0 0 255 
-22.6406 40.1987 -23.7977 0 127 0 255 
2.4032 -58.9159 -9.4061 0 0 127 255 
-67.1507 -13.6367 53.1803 127 0 0 255 
-22.9832 40.7368 -24.5678 0 127 0 255 
2.40364 -59.7355 -9.97904 0 0 127 255 
-68.0901 -13.8333 53.4608 127 0 0 255 
-23.3258 41.2749 -25.3379 0 127 0 255 
2.40409 -60.5551 -10.552 0 0 127 255 
-69.0296 -14.0299 53.7414 127 0 0 255 
-23.6685 41.8131 -26.108 0 127 0 255 
2.40454 -61.3747 -11.1249 0 0 127 255 
-69.9691 -14.2266 54.022 127 0 0 255 
-24.0111 42.3512 -26.8781 0 127 0 255 
2.40499 -62.1943 -11.6978 0 0 127 255 
-70.9086 -14.4232 54.3026 127 0 0 255 
-24.3537 42.8893 -27.6481 0 127 0 255 
2.40544 -63.0139 -12.2708 0 0 127 255 
-71.848 -14.6199 54.5831 127 0 0 255 
-24.6963 43.4275 -28.4182 0 127 0 255 
2.40589 -63.8335 -12.8437 0 0 127 255 
-72.7875 -14.8165 54.8637 127 0 0 255 
-25.0389 43.9656 -29.1883 0 127 0 255 
2.40633 -64.6531 -13.4167 0 0 127 255 
-73.727 -15.0132 55.1443 127 0 0 255 
-25.3815 44.5037 -29.9584 0 127 0 255 
2.40678 -65.4727 -13.9896 0 0 127 255 
-74.6665 -15.2098 55.4248 127 0 0 255 
-25.7242 45.0419 -30.7285 0 127 0 255 
2.40723 -66.2923 -14.5625 0 0 127 255 
-75.6059 -15.4064 55.7054 127 0 0 255 
-26.0668 45.58 -31.4985 0 127 0 255 
2.40768 -67.1119 -15.1355 0 0 127 255 
-76.5454 -15.6031 55.986 127 0 0 255 
-26.4094 46.1181 -32.2686 0 127 0 255 
2.40813 -67.9315 -15.7084 0 0 127 255 
-77.4849 -15.7997 56.2665 127 0 0 255 
-26.752 46.6563 -33.0387 0 127 0 255 
2.40858 -68.7511 -16.2813 0 0 127 255 
-78.4244 -15.9964 56.5471 127 0 0 255 
-27.0946 47.1944 -33.8088 0 127 0 255 
2.40902 -69.5707 -16.8543 0 0 127 255 
-79.3638 -16.193 56.8277 127 0 0 255 
-27.4373 47.7325 -34.5789 0 127 0 255 
2.40947 -70.3903 -17.4272 0 0 127 255 
-80.3033 -16.3897 57.1082 127 0 0 255 
-27.7799 48.2707 -35.3489 0 127 0 255 
2.40992 -71.2099 -18.0001 0 0 127 255 
-81.2428 -16.5863 57.3888 127 0 0 255 
-28.1225 48.8088 -36.119 0 127 0 255 
2.41037 -72.0295 -18.5731 0 0 127 255 
-82.1823 -16.7829 57.6694 127 0 0 255 
-28.4651 49.3469 -36.8891 0 127 0 255 
2.41082 -72.8491 -19.146 0 0 127 255 
-83.1217 -16.9796 57.9499 127 0 0 255 
-28.8077 49.8851 -37.6592 0 127 0 255 
2.41126 -73.6687 -19.719 0 0 127 255 
-84.0612 -17.1762 58.2305 127 0 0 255 
-29.1503 50.4232 -38.4293 0 127 0 255 
2.41171 -74.4883 -20.2919 0 0 127 255 
-85.0007 -17.3729 58.5111 127 0 0 255 
-29.493 50.9613 -39.1994 0 127 0 255 
2.41216 -75.3079 -20.8648 0 0 127 255 
-85.9402 -17.5695 58.7916 127 0 0 255 
-29.8356 51.4995 -39.9694 0 127 0 255 
2.41261 -76.1275 -21.4378 0 0 127 255 
-86.8796 -17.7662 59.0722 127 0 0 255 
-30.1782 52.0376 -40.7395 0 127 0 255 
2.41306 -76.9471 -22.0107 0 0 127 255 
-87.8191 -17.9628 59.3528 127 0 0 255 
-30.5208 52.5757 -41.5096 0 127 0 255 
2.41351 -77.7667 -22.5836 0 0 127 255 
-88.7586 -18.1594 59.6333 127 0 0 255 
-30.8634 53.1139 -42.2797 0 127 0 255 
2.41395 -78.5863 -23.1566 0 0 127 255 
-89.6981 -18.3561 59.9139 127 0 0 255 
-31.206 53.652 -43.0498 0 127 0 255 
2.4144 -79.4059 -23.7295 0 0 127 255 
-90.6375 -18.5527 60.1945 127 0 0 255 
-31.5487 54.1901 -43.8198 0 127 0 255 
2.41485 -80.2255 -24.3024 0 0 127 255 
