ply
format ascii 1.0
element vertex 298
property float x
property float y
property float z
property uchar red
property uchar green
property uchar blue
property uchar alpha
end_header
0 0 0 0 0 0 255 
1 0 0 255 0 0 255 
0 1 0 0 255 0 255 
0 0 1 0 0 255 255 
2 0 0 255 0 0 255 
0 2 0 0 255 0 255 
0 0 2 0 0 255 255 
3 0 0 255 0 0 255 
0 3 0 0 255 0 255 
0 0 3 0 0 255 255 
4 0 0 255 0 0 255 
0 4 0 0 255 0 255 
0 0 4 0 0 255 255 
5 0 0 255 0 0 255 
0 5 0 0 255 0 255 
0 0 5 0 0 255 255 
6 0 0 255 0 0 255 
0 6 0 0 255 0 255 
0 0 6 0 0 255 255 
7 0 0 255 0 0 255 
0 7 0 0 255 0 255 
0 0 7 0 0 255 255 
8 0 0 255 0 0 255 
0 8 0 0 255 0 255 
0 0 8 0 0 255 255 
9 0 0 255 0 0 255 
0 9 0 0 255 0 255 
0 0 9 0 0 255 255 
10 0 0 255 0 0 255 
0 10 0 0 255 0 255 
0 0 10 0 0 255 255 
11 0 0 255 0 0 255 
0 11 0 0 255 0 255 
0 0 11 0 0 255 255 
12 0 0 255 0 0 255 
0 12 0 0 255 0 255 
0 0 12 0 0 255 255 
13 0 0 255 0 0 255 
0 13 0 0 255 0 255 
0 0 13 0 0 255 255 
14 0 0 255 0 0 255 
0 14 0 0 255 0 255 
0 0 14 0 0 255 255 
15 0 0 255 0 0 255 
0 15 0 0 255 0 255 
0 0 15 0 0 255 255 
16 0 0 255 0 0 255 
0 16 0 0 255 0 255 
0 0 16 0 0 255 255 
17 0 0 255 0 0 255 
0 17 0 0 255 0 255 
0 0 17 0 0 255 255 
18 0 0 255 0 0 255 
0 18 0 0 255 0 255 
0 0 18 0 0 255 255 
19 0 0 255 0 0 255 
0 19 0 0 255 0 255 
0 0 19 0 0 255 255 
20 0 0 255 0 0 255 
0 20 0 0 255 0 255 
0 0 20 0 0 255 255 
21 0 0 255 0 0 255 
0 21 0 0 255 0 255 
0 0 21 0 0 255 255 
22 0 0 255 0 0 255 
0 22 0 0 255 0 255 
0 0 22 0 0 255 255 
23 0 0 255 0 0 255 
0 23 0 0 255 0 255 
0 0 23 0 0 255 255 
24 0 0 255 0 0 255 
0 24 0 0 255 0 255 
0 0 24 0 0 255 255 
25 0 0 255 0 0 255 
0 25 0 0 255 0 255 
0 0 25 0 0 255 255 
26 0 0 255 0 0 255 
0 26 0 0 255 0 255 
0 0 26 0 0 255 255 
27 0 0 255 0 0 255 
0 27 0 0 255 0 255 
0 0 27 0 0 255 255 
28 0 0 255 0 0 255 
0 28 0 0 255 0 255 
0 0 28 0 0 255 255 
29 0 0 255 0 0 255 
0 29 0 0 255 0 255 
0 0 29 0 0 255 255 
30 0 0 255 0 0 255 
0 30 0 0 255 0 255 
0 0 30 0 0 255 255 
31 0 0 255 0 0 255 
0 31 0 0 255 0 255 
0 0 31 0 0 255 255 
32 0 0 255 0 0 255 
0 32 0 0 255 0 255 
0 0 32 0 0 255 255 
33 0 0 255 0 0 255 
0 33 0 0 255 0 255 
0 0 33 0 0 255 255 
34 0 0 255 0 0 255 
0 34 0 0 255 0 255 
0 0 34 0 0 255 255 
35 0 0 255 0 0 255 
0 35 0 0 255 0 255 
0 0 35 0 0 255 255 
36 0 0 255 0 0 255 
0 36 0 0 255 0 255 
0 0 36 0 0 255 255 
37 0 0 255 0 0 255 
0 37 0 0 255 0 255 
0 0 37 0 0 255 255 
38 0 0 255 0 0 255 
0 38 0 0 255 0 255 
0 0 38 0 0 255 255 
39 0 0 255 0 0 255 
0 39 0 0 255 0 255 
0 0 39 0 0 255 255 
40 0 0 255 0 0 255 
0 40 0 0 255 0 255 
0 0 40 0 0 255 255 
41 0 0 255 0 0 255 
0 41 0 0 255 0 255 
0 0 41 0 0 255 255 
42 0 0 255 0 0 255 
0 42 0 0 255 0 255 
0 0 42 0 0 255 255 
43 0 0 255 0 0 255 
0 43 0 0 255 0 255 
0 0 43 0 0 255 255 
44 0 0 255 0 0 255 
0 44 0 0 255 0 255 
0 0 44 0 0 255 255 
45 0 0 255 0 0 255 
0 45 0 0 255 0 255 
0 0 45 0 0 255 255 
46 0 0 255 0 0 255 
0 46 0 0 255 0 255 
0 0 46 0 0 255 255 
47 0 0 255 0 0 255 
0 47 0 0 255 0 255 
0 0 47 0 0 255 255 
48 0 0 255 0 0 255 
0 48 0 0 255 0 255 
0 0 48 0 0 255 255 
49 0 0 255 0 0 255 
0 49 0 0 255 0 255 
0 0 49 0 0 255 255 
50 0 0 255 0 0 255 
0 50 0 0 255 0 255 
0 0 50 0 0 255 255 
51 0 0 255 0 0 255 
0 51 0 0 255 0 255 
0 0 51 0 0 255 255 
52 0 0 255 0 0 255 
0 52 0 0 255 0 255 
0 0 52 0 0 255 255 
53 0 0 255 0 0 255 
0 53 0 0 255 0 255 
0 0 53 0 0 255 255 
54 0 0 255 0 0 255 
0 54 0 0 255 0 255 
0 0 54 0 0 255 255 
55 0 0 255 0 0 255 
0 55 0 0 255 0 255 
0 0 55 0 0 255 255 
56 0 0 255 0 0 255 
0 56 0 0 255 0 255 
0 0 56 0 0 255 255 
57 0 0 255 0 0 255 
0 57 0 0 255 0 255 
0 0 57 0 0 255 255 
58 0 0 255 0 0 255 
0 58 0 0 255 0 255 
0 0 58 0 0 255 255 
59 0 0 255 0 0 255 
0 59 0 0 255 0 255 
0 0 59 0 0 255 255 
60 0 0 255 0 0 255 
0 60 0 0 255 0 255 
0 0 60 0 0 255 255 
61 0 0 255 0 0 255 
0 61 0 0 255 0 255 
0 0 61 0 0 255 255 
62 0 0 255 0 0 255 
0 62 0 0 255 0 255 
0 0 62 0 0 255 255 
63 0 0 255 0 0 255 
0 63 0 0 255 0 255 
0 0 63 0 0 255 255 
64 0 0 255 0 0 255 
0 64 0 0 255 0 255 
0 0 64 0 0 255 255 
65 0 0 255 0 0 255 
0 65 0 0 255 0 255 
0 0 65 0 0 255 255 
66 0 0 255 0 0 255 
0 66 0 0 255 0 255 
0 0 66 0 0 255 255 
67 0 0 255 0 0 255 
0 67 0 0 255 0 255 
0 0 67 0 0 255 255 
68 0 0 255 0 0 255 
0 68 0 0 255 0 255 
0 0 68 0 0 255 255 
69 0 0 255 0 0 255 
0 69 0 0 255 0 255 
0 0 69 0 0 255 255 
70 0 0 255 0 0 255 
0 70 0 0 255 0 255 
0 0 70 0 0 255 255 
71 0 0 255 0 0 255 
0 71 0 0 255 0 255 
0 0 71 0 0 255 255 
72 0 0 255 0 0 255 
0 72 0 0 255 0 255 
0 0 72 0 0 255 255 
73 0 0 255 0 0 255 
0 73 0 0 255 0 255 
0 0 73 0 0 255 255 
74 0 0 255 0 0 255 
0 74 0 0 255 0 255 
0 0 74 0 0 255 255 
75 0 0 255 0 0 255 
0 75 0 0 255 0 255 
0 0 75 0 0 255 255 
76 0 0 255 0 0 255 
0 76 0 0 255 0 255 
0 0 76 0 0 255 255 
77 0 0 255 0 0 255 
0 77 0 0 255 0 255 
0 0 77 0 0 255 255 
78 0 0 255 0 0 255 
0 78 0 0 255 0 255 
0 0 78 0 0 255 255 
79 0 0 255 0 0 255 
0 79 0 0 255 0 255 
0 0 79 0 0 255 255 
80 0 0 255 0 0 255 
0 80 0 0 255 0 255 
0 0 80 0 0 255 255 
81 0 0 255 0 0 255 
0 81 0 0 255 0 255 
0 0 81 0 0 255 255 
82 0 0 255 0 0 255 
0 82 0 0 255 0 255 
0 0 82 0 0 255 255 
83 0 0 255 0 0 255 
0 83 0 0 255 0 255 
0 0 83 0 0 255 255 
84 0 0 255 0 0 255 
0 84 0 0 255 0 255 
0 0 84 0 0 255 255 
85 0 0 255 0 0 255 
0 85 0 0 255 0 255 
0 0 85 0 0 255 255 
86 0 0 255 0 0 255 
0 86 0 0 255 0 255 
0 0 86 0 0 255 255 
87 0 0 255 0 0 255 
0 87 0 0 255 0 255 
0 0 87 0 0 255 255 
88 0 0 255 0 0 255 
0 88 0 0 255 0 255 
0 0 88 0 0 255 255 
89 0 0 255 0 0 255 
0 89 0 0 255 0 255 
0 0 89 0 0 255 255 
90 0 0 255 0 0 255 
0 90 0 0 255 0 255 
0 0 90 0 0 255 255 
91 0 0 255 0 0 255 
0 91 0 0 255 0 255 
0 0 91 0 0 255 255 
92 0 0 255 0 0 255 
0 92 0 0 255 0 255 
0 0 92 0 0 255 255 
93 0 0 255 0 0 255 
0 93 0 0 255 0 255 
0 0 93 0 0 255 255 
94 0 0 255 0 0 255 
0 94 0 0 255 0 255 
0 0 94 0 0 255 255 
95 0 0 255 0 0 255 
0 95 0 0 255 0 255 
0 0 95 0 0 255 255 
96 0 0 255 0 0 255 
0 96 0 0 255 0 255 
0 0 96 0 0 255 255 
97 0 0 255 0 0 255 
0 97 0 0 255 0 255 
0 0 97 0 0 255 255 
98 0 0 255 0 0 255 
0 98 0 0 255 0 255 
0 0 98 0 0 255 255 
99 0 0 255 0 0 255 
0 99 0 0 255 0 255 
0 0 99 0 0 255 255 
